<?xml version="1.0" encoding="UTF-8"?>
<!DOCTYPE svg PUBLIC "-//W3C//DTD SVG 1.1//EN" "http://www.w3.org/Graphics/SVG/1.1/DTD/svg11.dtd">
<!-- Creator: CorelDRAW X6 -->
<svg xmlns="http://www.w3.org/2000/svg" xml:space="preserve" width="2.20719in" height="2.69741in" version="1.1" style="shape-rendering:geometricPrecision; text-rendering:geometricPrecision; image-rendering:optimizeQuality; fill-rule:evenodd; clip-rule:evenodd"
viewBox="0 0 2207 2697"
 xmlns:xlink="http://www.w3.org/1999/xlink">
 <g id="Layer_x0020_1">
  <metadata id="CorelCorpID_0Corel-Layer"/>
  <path style="fill:#FFFFFF;" d="M1104 0c-483,0 -874,391 -874,874 0,483 391,874 874,874 483,0 874,-391 874,-874 0,-483 -392,-874 -874,-874zm-448 2642l895 0c-9,-31 -38,-79 -140,-82l0 0 -637 0c-12,1 -93,11 -118,82zm926 56l-960 0 -30 0 3 -30c14,-153 177,-163 177,-163l2 0 298 0 0 -581c-563,-17 -1016,-481 -1016,-1048 0,-3 0,-5 0,-8 -32,-14 -55,-47 -55,-84 0,-51 41,-92 92,-92 51,0 92,41 92,92 0,38 -22,70 -55,84 0,3 0,5 0,8 0,537 437,974 974,974 537,0 974,-437 974,-974 0,-3 0,-5 0,-8 -32,-14 -55,-47 -55,-84 0,-51 41,-92 92,-92 51,0 92,41 92,92 0,38 -22,70 -55,84 0,3 0,5 0,8 0,569 -455,1033 -1021,1048l0 581 279 0 1 0c210,7 198,167 198,167l-2 26 -26 0zm68 -1916l0 0c-12,-13 -32,-13 -45,-1l-32 30c-13,12 -13,32 -1,45l0 0c12,13 32,13 45,1l32 -30c13,-12 13,-32 1,-45zm-112 266l0 0c-12,-13 -32,-13 -45,-1l-206 193c-13,12 -13,32 -1,45l0 0c12,13 32,13 45,1l206 -193c13,-12 13,-32 1,-45zm14 -175l0 0c-12,-13 -32,-13 -45,-1l-206 193c-13,12 -13,32 -1,45l0 0c12,13 32,13 45,1l206 -193c13,-12 13,-32 1,-45zm-846 -158l0 0c-12,-12 -12,-32 0,-45l200 -200c12,-12 32,-12 45,0l0 0c12,12 12,32 0,45l-200 200c-12,12 -32,12 -45,0zm43 115l0 0c-12,-12 -12,-32 0,-45l134 -134c12,-12 32,-12 45,0l0 0c12,12 12,32 0,45l-134 134c-12,12 -32,12 -45,0zm-137 -21l0 0c-12,-12 -12,-32 0,-45l31 -31c12,-12 32,-12 45,0l0 0c12,12 12,32 0,45l-31 31c-12,12 -32,12 -45,0zm1503 11c-21,0 -37,-17 -37,-37 0,-21 17,-37 37,-37 21,0 37,17 37,37 0,21 -17,37 -37,37zm-2023 0c-21,0 -37,-17 -37,-37 0,-21 17,-37 37,-37 21,0 37,17 37,37 0,21 -17,37 -37,37zm1012 -665c-397,0 -720,323 -720,720 0,397 323,720 720,720 397,0 720,-323 720,-720 0,-397 -323,-720 -720,-720zm0 1375c-361,0 -655,-294 -655,-655 0,-361 294,-655 655,-655 361,0 655,294 655,655 0,361 -294,655 -655,655zm0 154c-446,0 -810,-363 -810,-810 0,-446 363,-810 810,-810 446,0 810,363 810,810 0,446 -363,810 -810,810z"/>
 </g>
</svg>
