<?xml version="1.0" encoding="utf-8"?>
<!-- Generator: Adobe Illustrator 26.0.2, SVG Export Plug-In . SVG Version: 6.00 Build 0)  -->
<svg version="1.1" id="Layer_3" xmlns="http://www.w3.org/2000/svg" xmlns:xlink="http://www.w3.org/1999/xlink" x="0px" y="0px"
	 viewBox="0 0 64 64" style="enable-background:new 0 0 64 64;" xml:space="preserve">
<g>
	<path style="fill:#88929F;" d="M58,2H36.667L35,4l2,4l-0.001,4L40,15l-8,17l-5-12l4-9l-4.5-9H6C3.791,2,2,3.791,2,6v40
		c0,2.209,1.791,4,4,4h52c2.209,0,4-1.791,4-4V6C62,3.791,60.209,2,58,2z"/>
	<polygon style="fill:#C7E2FB;" points="58,6 36,6 37,8 36.999,12 40,15 32,32 27,20 31,11 28.5,6 6,6 6,42 58,42 	"/>
	<polygon style="fill:#C7E2FB;" points="58,6 36,6 37,8 36.999,12 40,15 32,32 27,20 31,11 28.5,6 6,6 6,42 58,42 	"/>
	<path style="fill:#EBF7FE;" d="M36,6l1,2l-0.001,4L40,15l-8,17l-5-12l4-9l-2.5-5H6v33h44c2.209,0,4-1.791,4-4V6H36z"/>
	<path style="fill:#88929F;" d="M45,58c1.105,0,2,0.895,2,2v2H17v-2c0-1.105,0.895-2,2-2H45z"/>
	<rect x="23" y="50" style="fill:#A0A8B2;" width="18" height="8"/>
	<polygon style="fill:#FFFFFF;" points="21,35 19,30 24,31 	"/>
	<polygon style="fill:#FFFFFF;" points="43,38 45,33 40,34 	"/>
	<g>
		<path style="fill:#D9DCE0;" d="M57,47h-8c-0.552,0-1-0.448-1-1l0,0c0-0.552,0.448-1,1-1h8c0.552,0,1,0.448,1,1l0,0
			C58,46.552,57.552,47,57,47z"/>
	</g>
	<g>
		<path style="fill:#D9DCE0;" d="M45,47h-4c-0.552,0-1-0.448-1-1l0,0c0-0.552,0.448-1,1-1h4c0.552,0,1,0.448,1,1l0,0
			C46,46.552,45.552,47,45,47z"/>
	</g>
	<g>
		<path d="M58,1H36.667c-0.297,0-0.578,0.132-0.768,0.36l-1.667,2c-0.254,0.305-0.304,0.732-0.126,1.087L36,8.236L35.999,12
			c0,0.265,0.105,0.52,0.293,0.707l2.504,2.503l-6.74,14.323l-3.967-9.521l3.825-8.606c0.122-0.273,0.114-0.586-0.019-0.854l-4.5-9
			C27.225,1.214,26.879,1,26.5,1H6C3.243,1,1,3.243,1,6v40c0,2.757,2.243,5,5,5h16v6h-3c-1.654,0-3,1.346-3,3v2c0,0.552,0.448,1,1,1
			h30c0.552,0,1-0.448,1-1v-2c0-1.654-1.346-3-3-3h-3v-6h16c2.757,0,5-2.243,5-5V6C63,3.243,60.757,1,58,1z M26.35,19h-5.936
			L18,16.586V13h-2v4c0,0.265,0.105,0.52,0.293,0.707L18.586,20l-4.293,4.293l1.414,1.414L20.414,21h5.919l4.744,11.385
			c0.152,0.365,0.505,0.606,0.9,0.615c0.389,0.018,0.759-0.216,0.927-0.574l7.449-15.829l4.711,3.926l0.946,6.62l1.979-0.283
			l-0.929-6.505L49.414,18H53v-2h-4c-0.265,0-0.52,0.105-0.707,0.293l-2.354,2.354l-5.263-4.386l-2.676-2.675L38,8
			c0-0.155-0.036-0.308-0.105-0.447L37.618,7H57v34H7V7h20.882l2.013,4.025L26.35,19z M46,60v1H18v-1c0-0.551,0.449-1,1-1h26
			C45.551,59,46,59.449,46,60z M40,57H24v-6h16V57z M61,46c0,1.654-1.346,3-3,3H6c-1.654,0-3-1.346-3-3V6c0-1.654,1.346-3,3-3
			h19.882l1,2H6C5.448,5,5,5.448,5,6v36c0,0.552,0.448,1,1,1h52c0.552,0,1-0.448,1-1V6c0-0.552-0.448-1-1-1H36.618l-0.431-0.862
			L37.135,3H58c1.654,0,3,1.346,3,3V46z"/>
		<path d="M20.071,35.372c0.134,0.335,0.439,0.572,0.797,0.62C20.913,35.997,20.957,36,21,36c0.312,0,0.61-0.146,0.8-0.4l3-4
			c0.206-0.275,0.257-0.636,0.134-0.957s-0.401-0.556-0.738-0.624l-5-1c-0.361-0.071-0.73,0.059-0.965,0.341
			c-0.235,0.282-0.296,0.67-0.16,1.011L20.071,35.372z M22.248,31.669l-0.98,1.307l-0.653-1.634L22.248,31.669z"/>
		<path d="M42.2,38.6c0.19,0.253,0.487,0.4,0.8,0.4c0.043,0,0.087-0.003,0.131-0.009c0.358-0.047,0.663-0.284,0.797-0.62l2-5
			c0.136-0.341,0.075-0.729-0.16-1.011c-0.234-0.282-0.603-0.415-0.965-0.341l-5,1c-0.336,0.067-0.615,0.303-0.738,0.624
			S38.994,34.325,39.2,34.6L42.2,38.6z M43.386,34.343l-0.653,1.634l-0.98-1.307L43.386,34.343z"/>
		<rect x="40" y="25" width="2" height="2"/>
		<rect x="20" y="10" width="2" height="2"/>
	</g>
</g>
</svg>
